PathFileType	4	(X/Y/Z)	c:/Users/goper/Files/vsCode/490R/osim_files/C17/C17_SSWS_06.trc
DataRate	CameraRate	NumFrames	NumMarkers	Units                	OrigDataRate	OrigDataStartFrame	OrigNumFrames
250.00	250.00	7	36	mm	250.0	1265	2529
                Frame#	Time	LPSIS			LASIS			LTH1			LTH2			LTH3			LTH4			LLFE			LMFE			LSH1			LSH2			LSH3			LSH4			LLMAL			LMMAL			LCAL			LMTP5			LTOE			LMTP1			RPSIS			RASIS			RTH1			RTH2			RTH3			RTH4			RLFE			RMFE			RSH1			RSH2			RSH3			RSH4			RLMAL			RMMAL			RCAL			RMTP1			RTOE			RMTP5		
		X1	Y1	Z1	X2	Y2	Z2	X3	Y3	Z3	X4	Y4	Z4	X5	Y5	Z5	X6	Y6	Z6	X7	Y7	Z7	X8	Y8	Z8	X9	Y9	Z9	X10	Y10	Z10	X11	Y11	Z11	X12	Y12	Z12	X13	Y13	Z13	X14	Y14	Z14	X15	Y15	Z15	X16	Y16	Z16	X17	Y17	Z17	X18	Y18	Z18	X19	Y19	Z19	X20	Y20	Z20	X21	Y21	Z21	X22	Y22	Z22	X23	Y23	Z23	X24	Y24	Z24	X25	Y25	Z25	X26	Y26	Z26	X27	Y27	Z27	X28	Y28	Z28	X29	Y29	Z29	X30	Y30	Z30	X31	Y31	Z31	X32	Y32	Z32	X33	Y33	Z33	X34	Y34	Z34	X35	Y35	Z35	X36	Y36	Z36

1265	5.05600	-633.77112	1035.55566	311.57199	-821.22485	985.86658	429.40710	-641.91718	699.83350	451.55859	-635.94586	657.59351	444.41592	-701.38501	688.64716	454.38950	-689.62689	645.98145	445.37607	-581.15173	497.23837	415.11203	-582.44379	502.92758	291.55972	-414.87018	320.13629	409.75574	-395.55820	281.47711	403.39804	-469.48169	287.58984	407.66385	-441.45938	253.86024	400.45578	-338.74756	147.41348	375.00308	-350.70230	157.65840	288.60526	-250.50197	142.00500	333.86655	-416.91147	42.37086	382.77380	-467.76685	56.98652	310.92706	-447.54636	43.92220	263.20572	-644.03467	1028.69470	238.15857	-829.54742	996.31104	157.62000	-886.92291	724.46948	108.31493	-908.20166	684.01007	117.66843	-939.73724	749.37915	123.03705	-956.19592	704.33856	125.80558	-1027.52075	502.97305	151.96234	-997.21423	505.11258	274.28473	-1030.25427	289.42905	147.49155	-1052.06226	248.84909	165.71106	-1086.81714	313.95529	156.75294	-1099.35254	269.82401	168.79103	-1125.22852	94.83799	201.28511	-1135.42163	126.10159	289.07129	-1077.34338	35.46148	249.08351	-1286.05200	134.67381	291.11667	-1285.76416	162.55469	247.01544	-1259.92871	103.50719	181.21222
1266	5.06000	-641.04559	1034.41589	311.37109	-827.74561	984.89319	429.56406	-648.61121	699.11230	451.27155	-642.79181	656.87360	444.34735	-708.17114	687.75385	454.54663	-696.42157	645.00769	445.58075	-587.72827	496.44281	415.39679	-589.68903	501.88953	291.79208	-419.40326	321.51358	410.02188	-399.69431	283.02222	403.61600	-473.87582	288.41962	407.93259	-445.26489	254.93291	400.83521	-341.02405	149.60753	375.47552	-353.42435	159.60155	289.09967	-252.93317	145.65402	334.21954	-417.50015	42.72976	382.89774	-467.89792	57.10816	310.91580	-447.70367	44.22485	263.23111	-650.92200	1027.74475	238.42876	-837.39838	994.95856	158.05588	-895.15527	723.68903	109.23337	-916.49994	683.27802	118.67052	-948.16742	748.58588	123.90531	-964.00616	703.56659	126.79227	-1034.74377	501.41190	152.65541	-1005.08362	504.70377	274.81717	-1035.06299	288.04941	148.77028	-1056.26245	248.22252	164.83871	-1091.85559	312.13861	158.03943	-1104.79248	267.50592	170.93216	-1128.20520	94.54411	202.50154	-1139.24658	124.03030	290.44394	-1078.52820	36.22899	249.75354	-1290.02808	130.26779	292.91953	-1290.08276	157.72934	249.01149	-1262.84009	99.63245	183.07661
1267	5.06400	-648.18573	1033.37488	311.22122	-835.34442	983.61121	429.94611	-655.46289	698.34985	450.91586	-649.62463	656.19446	444.23621	-715.06506	686.86951	454.69778	-703.13086	644.27875	445.91766	-594.69141	495.54651	415.63849	-597.08752	500.79510	292.00558	-424.08801	322.76755	409.93497	-404.01492	284.61276	403.91470	-476.24960	286.92761	407.91373	-449.14328	256.01288	401.10349	-343.87006	151.74210	375.98273	-356.34286	161.63852	289.60425	-255.66116	149.44875	334.54880	-418.10736	43.13522	382.96225	-468.06216	57.20264	310.82138	-448.09241	44.30495	263.33902	-658.29791	1026.71033	238.19830	-844.78900	993.83807	158.09357	-903.29663	722.88715	110.03980	-924.59094	682.50616	119.60449	-956.33600	747.73132	124.88873	-972.10034	702.66309	127.82126	-1041.88843	500.09680	152.90520	-1012.56818	504.15561	275.29602	-1040.15332	286.84802	150.13655	-1061.14062	247.37614	165.40327	-1097.03601	310.59323	159.35049	-1110.69543	265.84119	172.88126	-1131.77185	94.33568	203.75780	-1143.48083	122.41187	291.79959	-1079.87341	37.40615	250.16252	-1292.97485	122.35862	293.50595	-1295.11621	152.85925	250.58260	-1266.01697	95.51803	184.73006
1268	5.06800	-655.40686	1032.37878	310.98917	-842.48456	982.53296	430.21896	-662.34515	697.71185	450.56348	-656.59192	655.44604	444.07037	-722.07422	685.99286	454.84265	-710.09003	643.39276	446.19724	-601.81683	494.66766	415.83255	-604.62244	499.67645	292.35336	-429.05081	324.22858	410.16403	-408.45822	286.30316	404.13559	-480.75101	287.60724	408.20404	-453.35928	257.13788	401.42941	-346.49640	154.01799	376.48141	-359.29083	163.74106	290.09476	-258.47845	153.40463	334.83850	-418.82166	43.58280	382.96277	-468.30618	57.40541	310.75595	-448.39081	44.51637	263.40146	-665.68732	1025.79370	237.97414	-852.47345	992.87671	158.29427	-911.23956	722.08868	110.66161	-932.46643	681.65820	120.28033	-964.25543	746.86731	125.84097	-979.92926	701.75970	128.70799	-1048.81897	498.81830	152.87320	-1019.82751	503.69531	275.62448	-1045.66809	285.89227	151.64403	-1067.59863	245.26553	169.60388	-1102.71423	309.45770	160.70836	-1115.64917	265.27829	173.66801	-1135.48364	94.44583	204.69348	-1147.97168	121.09830	292.87851	-1081.26270	38.91680	250.34409	-1296.95630	117.06456	294.76871	-1300.62732	147.86014	251.91597	-1269.52490	91.41431	186.19485
1269	5.07200	-663.09802	1031.19165	310.42529	-849.10840	981.58838	430.44116	-669.48016	696.92792	450.16809	-663.66937	654.69305	443.89752	-729.20593	685.12238	454.98148	-717.15356	642.61115	446.39386	-609.15540	493.69904	416.06308	-612.48199	498.45206	292.63248	-434.25113	325.67630	410.34854	-413.10352	287.99377	404.39111	-485.45712	288.31815	408.53867	-457.71487	258.22357	401.69263	-349.64911	156.38808	376.97327	-362.56189	165.90077	290.62445	-261.56769	157.62500	335.13702	-419.69406	44.02681	382.96851	-468.59311	57.61282	310.60281	-448.70758	44.74621	263.44553	-673.15363	1024.86523	237.69806	-861.17719	991.78082	158.86594	-918.94629	721.45557	111.01565	-939.95929	680.94495	120.61367	-971.82294	746.10266	126.63059	-987.40570	700.94702	129.42688	-1055.54761	497.83786	152.60179	-1026.42957	503.01132	275.76218	-1051.46277	285.43259	153.17874	-1073.51062	244.65678	171.21242	-1108.72241	308.72684	161.70135	-1120.43848	265.15332	173.88390	-1139.26685	94.45717	205.28705	-1152.35852	120.09391	293.65591	-1082.65820	40.42751	250.41968	-1301.00867	111.46872	295.72159	-1306.34741	142.62640	253.11069	-1272.66614	87.28362	187.43225
1270	5.07600	-670.23706	1030.37012	310.18634	-856.25848	980.57770	430.76788	-676.77277	696.05743	449.71637	-670.99799	653.85162	443.70859	-736.46680	684.25653	455.11530	-724.37842	641.75446	446.70190	-616.66895	492.74118	416.28894	-620.44922	497.20285	292.98648	-439.58228	327.17990	410.50757	-417.98932	289.86368	404.66479	-490.47562	289.07999	408.80698	-462.13324	259.53583	401.99207	-352.84915	158.76979	377.41830	-366.09061	168.10675	291.18768	-264.94287	161.89795	335.38950	-420.59570	44.43658	383.04382	-468.20914	57.28471	310.93365	-449.14200	44.96438	263.50082	-680.21173	1024.18481	237.45732	-868.74829	990.89526	159.05276	-926.22876	721.03143	111.20464	-947.06891	680.48334	120.69479	-979.05988	745.58386	127.18090	-994.47333	700.39703	129.79176	-1062.51172	497.32751	152.25981	-1032.95618	502.51877	275.97882	-1057.49548	285.60355	154.51848	-1079.37012	244.52448	172.45506	-1115.50208	308.29642	162.65804	-1126.15955	264.73685	174.33205	-1142.61462	94.15179	205.36888	-1156.10022	118.95951	294.11011	-1084.32788	41.45914	250.32458	-1304.67505	105.80711	296.31720	-1311.79065	137.28140	254.25050	-1275.65356	83.15353	188.26854
1271	5.08000	-677.49524	1029.56543	310.02432	-863.30426	979.66705	431.10855	-684.10309	695.18982	449.21005	-678.51965	652.88007	443.49725	-743.86267	683.39380	455.24564	-731.75262	640.79095	446.89926	-624.43439	491.65503	416.51431	-629.29688	495.73196	292.77725	-445.51706	328.48782	410.78769	-423.20407	291.64807	404.92981	-495.61490	289.68115	409.03799	-467.09982	260.77939	402.24454	-356.19965	161.24510	377.95151	-369.81543	170.35493	291.72290	-268.71378	166.22874	335.59534	-421.47403	45.00505	383.08551	-468.36154	57.35953	310.94193	-449.55582	45.22613	263.60376	-687.83215	1023.31824	237.07567	-876.43939	989.83069	159.37128	-933.04822	720.93243	111.32395	-953.86725	680.34131	120.57375	-985.94623	745.32654	127.44913	-1001.20697	700.11853	129.84814	-1069.62109	497.20963	151.96674	-1038.92041	502.16248	276.07803	-1063.79541	286.22195	155.35922	-1085.24597	244.56635	173.20576	-1122.03687	308.14044	163.08946	-1132.47888	264.24158	174.83209	-1144.71936	93.86438	204.61194	-1159.23181	117.97997	293.99979	-1085.43115	42.57174	250.14740	-1307.55310	100.71385	296.48172	-1316.00598	132.03516	254.50159	-1278.13489	78.78892	188.68871
